<svg xmlns="http://www.w3.org/2000/svg" width="96" height="128" viewBox="0 0 96 128">
  <rect width="96" height="128" fill="none"/>
  <path d="M14 8 H82 C87 8 90 12 90 17 V111 C90 116 87 120 82 120 H14 C9 120 6 116 6 111 V17 C6 12 9 8 14 8 Z" fill="#ffffff" opacity="0.92"/>
  <path d="M7 38 C22 26 26 45 38 31 C47 21 54 38 66 25 C78 12 91 31 90 15 V120 H6 Z" fill="#000000" opacity="0.92"/>
  <path d="M11 54 C24 43 31 62 43 49 C54 37 59 57 73 43 C82 34 88 43 90 50 V120 H6 V63 C7 59 8 56 11 54 Z" fill="#000000" opacity="0.55"/>
</svg>
